<svg xmlns="http://www.w3.org/2000/svg" viewBox="0 0 1000 1000"><title>contact</title><rect width="1000" height="1000" style="fill:#3882f1"/><polygon points="1000 0 0 0 0 1000 758.1 1000 1000 746.2 1000 0" style="fill:#367de8"/><polygon points="1000 0 0 0 0 1000 531.5 1000 1000 551.8 1000 0" style="fill:#3479df"/><polygon points="1000 0 0 0 0 1000 284.2 1000 1000 395.6 1000 0" style="fill:#3274d6"/><polygon points="1000 0 0 0 0 1000 8.7 1000 1000 260.3 1000 0" style="fill:#306fcd"/><polygon points="1000 0 0 0 0 801 1000 146.5 1000 0" style="fill:#2f6bc4"/><polygon points="1000 0 0 0 0 613.7 1000 46.9 1000 0" style="fill:#2d66bb"/><polygon points="905.7 0 0 0 0 440 905.7 0" style="fill:#2b61b2"/><path d="M721.8,0H0V259.3C218,182.6,545.3,64.1,721.8,0Z" transform="translate(0 0)" style="fill:#295da9"/><polygon points="423.5 0 0 0 0 91.7 423.5 0" style="fill:#2758a0"/></svg>