<svg xmlns="http://www.w3.org/2000/svg" viewBox="0 0 1000 1000"><title>password</title><rect width="1000" height="1000" style="fill:#3882f1"/><polygon points="0 746.2 241.9 1000 1000 1000 1000 0 0 0 0 746.2" style="fill:#367de8"/><polygon points="0 551.8 468.5 1000 1000 1000 1000 0 0 0 0 551.8" style="fill:#3479df"/><polygon points="0 395.6 715.8 1000 1000 1000 1000 0 0 0 0 395.6" style="fill:#3274d6"/><polygon points="0 260.3 991.3 1000 1000 1000 1000 0 0 0 0 260.3" style="fill:#306fcd"/><polygon points="0 146.5 1000 801 1000 0 0 0 0 146.5" style="fill:#2f6bc4"/><polygon points="0 46.9 1000 613.7 1000 0 0 0 0 46.9" style="fill:#2d66bb"/><polygon points="1000 440 1000 0 94.3 0 1000 440" style="fill:#2b61b2"/><path d="M1000,259.3V0H278.2C454.7,64.1,782,182.6,1000,259.3Z" transform="translate(0 0)" style="fill:#295da9"/><polygon points="1000 91.7 1000 0 576.5 0 1000 91.7" style="fill:#2758a0"/></svg>